{
    "asset" : {
        "generator" : "Khronos glTF Blender I/O v1.1.46",
        "version" : "2.0"
    },
    "scene" : 0,
    "scenes" : [
        {
            "name" : "Scene",
            "nodes" : [
                0
            ]
        }
    ],
    "nodes" : [
        {
            "mesh" : 0,
            "name" : "Ghost",
            "rotation" : [
                0,
                0.1640101820230484,
                0,
                0.9864586591720581
            ],
            "translation" : [
                0,
                3.6599206924438477,
                0
            ]
        }
    ],
    "materials" : [
        {
            "doubleSided" : true,
            "emissiveFactor" : [
                0,
                0,
                0
            ],
            "name" : "Material.003",
            "pbrMetallicRoughness" : {
                "baseColorFactor" : [
                    1,
                    0,
                    0,
                    1
                ],
                "metallicFactor" : 0,
                "roughnessFactor" : 0.5
            }
        },
        {
            "doubleSided" : true,
            "emissiveFactor" : [
                0,
                0,
                0
            ],
            "name" : "Material.002",
            "pbrMetallicRoughness" : {
                "baseColorFactor" : [
                    1,
                    1,
                    1,
                    1
                ],
                "metallicFactor" : 0,
                "roughnessFactor" : 0.5
            }
        },
        {
            "doubleSided" : true,
            "emissiveFactor" : [
                0,
                0,
                0
            ],
            "name" : "Material.001",
            "pbrMetallicRoughness" : {
                "baseColorFactor" : [
                    0,
                    0,
                    0,
                    1
                ],
                "metallicFactor" : 0,
                "roughnessFactor" : 0.5
            }
        }
    ],
    "meshes" : [
        {
            "name" : "Sphere.001",
            "primitives" : [
                {
                    "attributes" : {
                        "POSITION" : 0,
                        "NORMAL" : 1,
                        "TEXCOORD_0" : 2
                    },
                    "indices" : 3,
                    "material" : 0
                },
                {
                    "attributes" : {
                        "POSITION" : 4,
                        "NORMAL" : 5,
                        "TEXCOORD_0" : 6
                    },
                    "indices" : 7,
                    "material" : 1
                },
                {
                    "attributes" : {
                        "POSITION" : 8,
                        "NORMAL" : 9,
                        "TEXCOORD_0" : 10
                    },
                    "indices" : 11,
                    "material" : 2
                }
            ]
        }
    ],
    "accessors" : [
        {
            "bufferView" : 0,
            "componentType" : 5126,
            "count" : 1038,
            "max" : [
                2.50000262260437,
                4.663504600524902,
                2.500004768371582
            ],
            "min" : [
                -2.50000262260437,
                -3.650932550430298,
                -2.5000009536743164
            ],
            "type" : "VEC3"
        },
        {
            "bufferView" : 1,
            "componentType" : 5126,
            "count" : 1038,
            "type" : "VEC3"
        },
        {
            "bufferView" : 2,
            "componentType" : 5126,
            "count" : 1038,
            "type" : "VEC2"
        },
        {
            "bufferView" : 3,
            "componentType" : 5123,
            "count" : 1560,
            "type" : "SCALAR"
        },
        {
            "bufferView" : 4,
            "componentType" : 5126,
            "count" : 3120,
            "max" : [
                0.4803617596626282,
                2.11134672164917,
                2.7375974655151367
            ],
            "min" : [
                -1.8773128986358643,
                1.0384156703948975,
                1.7408130168914795
            ],
            "type" : "VEC3"
        },
        {
            "bufferView" : 5,
            "componentType" : 5126,
            "count" : 3120,
            "type" : "VEC3"
        },
        {
            "bufferView" : 6,
            "componentType" : 5126,
            "count" : 3120,
            "type" : "VEC2"
        },
        {
            "bufferView" : 7,
            "componentType" : 5123,
            "count" : 4560,
            "type" : "SCALAR"
        },
        {
            "bufferView" : 8,
            "componentType" : 5126,
            "count" : 3120,
            "max" : [
                0.22953620553016663,
                1.803245186805725,
                2.759082794189453
            ],
            "min" : [
                -1.7809089422225952,
                1.1601296663284302,
                2.0370748043060303
            ],
            "type" : "VEC3"
        },
        {
            "bufferView" : 9,
            "componentType" : 5126,
            "count" : 3120,
            "type" : "VEC3"
        },
        {
            "bufferView" : 10,
            "componentType" : 5126,
            "count" : 3120,
            "type" : "VEC2"
        },
        {
            "bufferView" : 11,
            "componentType" : 5123,
            "count" : 4560,
            "type" : "SCALAR"
        }
    ],
    "bufferViews" : [
        {
            "buffer" : 0,
            "byteLength" : 12456,
            "byteOffset" : 0
        },
        {
            "buffer" : 0,
            "byteLength" : 12456,
            "byteOffset" : 12456
        },
        {
            "buffer" : 0,
            "byteLength" : 8304,
            "byteOffset" : 24912
        },
        {
            "buffer" : 0,
            "byteLength" : 3120,
            "byteOffset" : 33216
        },
        {
            "buffer" : 0,
            "byteLength" : 37440,
            "byteOffset" : 36336
        },
        {
            "buffer" : 0,
            "byteLength" : 37440,
            "byteOffset" : 73776
        },
        {
            "buffer" : 0,
            "byteLength" : 24960,
            "byteOffset" : 111216
        },
        {
            "buffer" : 0,
            "byteLength" : 9120,
            "byteOffset" : 136176
        },
        {
            "buffer" : 0,
            "byteLength" : 37440,
            "byteOffset" : 145296
        },
        {
            "buffer" : 0,
            "byteLength" : 37440,
            "byteOffset" : 182736
        },
        {
            "buffer" : 0,
            "byteLength" : 24960,
            "byteOffset" : 220176
        },
        {
            "buffer" : 0,
            "byteLength" : 9120,
            "byteOffset" : 245136
        }
    ],
    "buffers" : [
        {
            "byteLength" : 254256,
            "uri" : "data:application/octet-stream;base64,"
        }
    ]
}
